<svg width="25" height="25" viewBox="0 0 25 25" fill="none" xmlns="http://www.w3.org/2000/svg">
<circle cx="12.6152" cy="12.8553" r="12" fill="#0359BD"/>
<path d="M12.6152 8.48157L12.0898 8.48541L11.7007 8.49245L11.0607 8.50909L10.3528 8.53405L9.3013 8.57885L8.73042 8.60573C8.19395 8.63252 7.68542 8.85306 7.29924 9.22641C6.91306 9.59975 6.67547 10.1005 6.63058 10.6358L6.60626 10.9366C6.54863 11.6452 6.51789 12.3556 6.5141 13.0665C6.5141 13.7718 6.55378 14.5936 6.63314 15.5318C6.6781 16.0607 6.91121 16.5559 7.29016 16.9276C7.66911 17.2993 8.16877 17.5227 8.69842 17.5574L9.16754 17.5868C10.3154 17.6576 11.4652 17.6945 12.6152 17.6976C13.8024 17.6976 15.108 17.6508 16.5333 17.5574C17.0632 17.5227 17.563 17.299 17.9419 16.9271C18.3209 16.5552 18.5539 16.0596 18.5986 15.5305L18.6235 15.2265C18.6819 14.508 18.7128 13.7874 18.7163 13.0665C18.7163 12.3638 18.6779 11.5542 18.6011 10.6364C18.5563 10.1013 18.3188 9.60058 17.9327 9.22725C17.5467 8.85392 17.0383 8.63331 16.5019 8.60637L15.6559 8.56605L14.8783 8.53405L14.1698 8.50909L13.5298 8.49245L13.1413 8.48605L12.6152 8.48157ZM12.2786 9.33533L12.781 9.33405L13.133 9.33725L13.5157 9.34429L13.9298 9.35453L14.3739 9.36797L14.8495 9.38525L15.3551 9.40573L16.4597 9.45693C16.7903 9.47346 17.1036 9.60941 17.3415 9.83953C17.5794 10.0696 17.7256 10.3783 17.7531 10.7081C17.828 11.6035 17.8651 12.39 17.8651 13.0672C17.8651 13.6771 17.8351 14.3747 17.7743 15.16L17.7499 15.4608C17.7223 15.7866 17.5787 16.0918 17.3453 16.3208C17.1118 16.5497 16.8039 16.6874 16.4776 16.7088C15.192 16.7964 13.9038 16.8423 12.6152 16.8464C11.5784 16.8464 10.4456 16.8105 9.21874 16.7376L8.75282 16.7088C8.42672 16.6871 8.11918 16.5493 7.88598 16.3204C7.65279 16.0914 7.50938 15.7864 7.48178 15.4608C7.40976 14.6649 7.3709 13.8663 7.3653 13.0672C7.3653 12.5456 7.3877 11.9536 7.43378 11.2924L7.47858 10.7062C7.50653 10.3766 7.65309 10.0683 7.89107 9.83861C8.12905 9.60887 8.44228 9.47325 8.77266 9.45693L9.87602 9.40573L10.3816 9.38525L10.8571 9.36797L11.3013 9.35517L11.9106 9.34045L12.2786 9.33533Z" fill="white"/>
<path d="M11.4101 11.3974C11.3346 11.5098 11.2943 11.6422 11.2943 11.7776V14.4054C11.2941 14.5286 11.3274 14.6496 11.3905 14.7554C11.4535 14.8612 11.5441 14.9479 11.6526 15.0064C11.7611 15.0648 11.8833 15.0927 12.0064 15.0872C12.1295 15.0817 12.2488 15.0429 12.3516 14.975L14.3228 13.672C14.4165 13.6101 14.4934 13.5261 14.5469 13.4273C14.6003 13.3285 14.6284 13.2181 14.6289 13.1058C14.6293 12.9935 14.602 12.8829 14.5494 12.7837C14.4968 12.6845 14.4205 12.5999 14.3272 12.5373L12.356 11.2125C12.2168 11.1187 12.0478 11.0797 11.8815 11.1028C11.7152 11.126 11.5633 11.2097 11.4549 11.3379L11.4101 11.3974ZM12.1455 12.0963L13.6405 13.1017L12.1455 14.0899V12.0963Z" fill="white"/>
</svg>
